<?xml version="1.0" encoding="UTF-8" standalone="no"?>
<!-- Created with Inkscape (http://www.inkscape.org/) -->
<svg id="svg3807" xmlns:rdf="http://www.w3.org/1999/02/22-rdf-syntax-ns#" xmlns="http://www.w3.org/2000/svg" height="130.79" width="432.38" version="1.1" xmlns:cc="http://creativecommons.org/ns#" xmlns:dc="http://purl.org/dc/elements/1.1/">
 <title id="title4834">Cuisine Bangkok Logo</title>
 <metadata id="metadata3812">
  <rdf:RDF>
   <cc:Work rdf:about="">
    <dc:format>image/svg+xml</dc:format>
    <dc:type rdf:resource="http://purl.org/dc/dcmitype/StillImage"/>
    <dc:title>Cuisine Bangkok Logo</dc:title>
    <dc:date>2017-04-07</dc:date>
    <dc:creator>
     <cc:Agent>
      <dc:title>Miguel Legault</dc:title>
     </cc:Agent>
    </dc:creator>
    <dc:source>Redrawn from photo</dc:source>
   </cc:Work>
  </rdf:RDF>
 </metadata>
 <g id="layer1" transform="translate(-102.43456,-443.53717)">
  <g id="g3194" fill="#FFF">
   <path id="path3985" d="m304.58,573.12c-13.758-3.8089-21.233-14.608-18.158-26.233,1.7137-6.4785,5.7528-11.183,12.647-14.73,5.0808-2.6141,7.0328-3.0227,15.902-3.3284,8.0822-0.27854,11.399,0.0584,16.536,1.68,3.5345,1.1156,6.8665,1.7563,7.4045,1.4238,0.53799-0.3325,0.77132-0.19751,0.51852,0.29997-0.25281,0.49748-1.5201,3.0459-2.8162,5.6632-2.0887,4.2179-2.537,4.5985-3.9449,3.3494-3.6898-3.2739-15.852-4.6349-23.193-2.5955-6.6376,1.8438-9.895,6.1889-9.895,13.199,0,8.4173,6.2433,12.797,18.21,12.775,10.358-0.0194,11.79-0.54937,11.79-4.363v-3.1434l-7,0.5201-7,0.5201-0.002-5.01-0.002-5.01,14.252,0.30025,14.252,0.30026v9.8173c0,9.5104-0.0782,9.8519-2.5,10.923-10.191,4.5055-27.668,6.2263-37,3.6429z"/>
   <path id="path3981" d="m448.54,562.16c9.0729-4.6918,9.5201-17.559,0.77171-22.202-4.2708-2.2664-13.225-2.2503-17.527,0.0316-9.1984,4.879-9.2839,17.264-0.15114,21.899,4.2392,2.1513,13,2.292,16.907,0.27153zm-18.461,10.848c-11.604-3.1092-18.5-11.374-18.5-22.17,0-11.258,6.4155-18.62,19-21.801,7.5749-1.915,18.38-1.4474,24.272,1.0505,15.574,6.602,19.355,25.66,7.3088,36.839-7.0388,6.5322-20.721,9.1263-32.081,6.0824z"/>
   <path id="path3975" d="m137.33,544.1c0.6875-0.21863,1.25-1.4842,1.25-2.8123,0-3.0506-1.9854-3.6166-12.75-3.6344l-8.25-0.0137v3.4167c0,1.8792,0.54734,3.5991,1.2163,3.8221,1.3903,0.46344,16.643-0.17724,18.534-0.77849zm1.5,17.324c2.1167-2.4257,2.1439-2.8624,0.33223-5.3428-1.2173-1.6667-2.9137-1.9893-12-2.2822l-10.582-0.34103v4.9244c0,2.7084,0.28406,5.2084,0.63125,5.5556,0.34719,0.34719,4.9597,0.3748,10.25,0.0613,7.9369-0.47026,9.9247-0.92057,11.369-2.5754zm-36.368,11.586c-0.0651-0.47868-0.007-1.3203,0.12912-1.8703,0.13614-0.55,0.61561-9.7576,1.0655-20.461,0.59831-14.236,0.50995-19.832-0.32905-20.843-0.97154-1.1706,1.9048-1.314,18.803-0.93724,22.949,0.51167,26.543,1.3108,28.979,6.4443,2.0658,4.3534,1.1774,8.5255-2.4687,11.593l-2.7926,2.3499,3.4805,3.3117c3.2415,3.0843,3.4482,3.648,3.0098,8.2098-0.55354,5.7608-3.3579,9.2942-8.6837,10.941-4.3754,1.3532-41.027,2.476-41.193,1.2619z"/>
   <path id="path3971" d="m192.07,552.39c-2.2556-7.2769-4.8888-13.751-5.5928-13.751-0.65812,0-3.3247,5.2416-6.9734,13.707l-1.8133,4.2073,7.1962,0.29273c3.9579,0.16099,7.4898,0.18078,7.8487,0.044,0.35887-0.13682,0.0595-2.1618-0.66526-4.5zm6.7565,20.584c-0.69093-0.27855-1.0141-0.89822-0.71819-1.377,0.29592-0.47882-0.12831-2.4654-0.94274-4.4146l-1.4808-3.544h-10.973-10.973l-1.1486,3.4804c-0.63176,1.9142-0.8651,3.9392-0.51853,4.5,0.40672,0.65809-2.0266,1.0196-6.8634,1.0196h-7.4935l4.7796-9.75c11.846-24.165,14.219-29.324,14.362-31.223,0.1433-1.9023,0.82108-2.0272,10.999-2.0272,5.9654,0,10.606,0.38903,10.312,0.86452-0.48972,0.79238,13.149,37.352,15.44,41.385,0.90835,1.5999,0.37104,1.7432-6.2649,1.671-3.9922-0.0434-7.8238-0.30685-8.5147-0.58541z"/>
   <path id="path3969" d="m223.63,572.07c0.94501-1.1387,1.4013-7.2123,1.6716-22.25l0.37181-20.684,9.6394-0.32967c8.3821-0.28666,9.4805-0.1383,8.4217,1.1376-1.0025,1.208-0.28488,2.4927,4.0614,7.2709,8.384,9.217,9.0686,9.9189,13.089,13.417l3.8094,3.3154-0.30943-12.658-0.30942-12.658,8,0.11782c4.4,0.0648,7.2125,0.32362,6.25,0.57515-1.7914,0.46815-1.8554,1.6396-2.2153,40.562l-0.0347,3.7513-6.809-0.001c-4.2658-0.00081-6.5791-0.37327-6.1935-0.9972,0.33853-0.54776-3.7974-5.5843-9.191-11.192-14.6-15.181-15.217-15.765-15.749-14.904-0.2698,0.43655-0.61802,6.7081-0.7738,13.937l-0.28324,13.143-7.3724,0.006c-6.5788,0.006-7.2325-0.16236-6.0726-1.56z"/>
   <path id="path3967" d="m352.4,572.77c2.0289-1.2865,3.0532-41.968,1.0881-43.212-0.88493-0.56023,1.8848-0.89634,7.4656-0.90598,7.2047-0.0124,8.668,0.23105,7.7847,1.2953-1.0545,1.2706-1.5186,16.689-0.50229,16.689,1.3721,0,18.345-15.329,18.345-16.568,0-1.1527,2.067-1.4321,10.595-1.4321h10.595l-3.9327,3.25c-2.163,1.7875-6.7237,5.4011-10.135,8.0303-4.002,3.0844-5.9396,5.213-5.4617,6,3.0023,4.9452,17.864,25.392,19.188,26.4,1.3621,1.0362-0.0575,1.2621-8.0984,1.2883-8.6872,0.0283-9.75-0.16189-9.75-1.7451,0-0.9773-1.8058-4.1803-4.013-7.1177s-4.7792-6.6378-5.7156-8.2231c-0.93644-1.5853-2.222-2.8823-2.8568-2.8823-0.63479,0-3.0128,1.6292-5.2844,3.6204-3.9489,3.4614-4.1302,3.8749-4.1302,9.4167,0,3.7013,0.45178,5.9786,1.25,6.3006,0.6875,0.27741-3.025,0.53302-8.25,0.56802-5.452,0.0365-8.9381-0.29268-8.1812-0.77257z"/>
   <path id="path3965" d="m479.37,550.64c0.32542-26.184-0.77808-23.641,9.7141-22.385l5,0.59859-0.32574,9.078c-0.31098,8.6668-0.24308,9.013,1.4988,7.6427,10.776-8.4774,17.315-14.525,16.893-15.624-0.39782-1.0367,1.8471-1.2949,10.715-1.2325,6.1702,0.0434,10.592,0.32738,9.8255,0.63103-0.7662,0.30364-2.3412,1.3519-3.5,2.3295-12.5,10.546-15.607,13.255-15.607,13.609,0,1.0756,19.968,27.185,21.151,27.656,0.74207,0.2956-3.2898,0.57298-8.9598,0.6164-6.6833,0.0512-10.09-0.27515-9.6868-0.92784,0.58815-0.95164-10.466-17.234-12.593-18.548-0.54818-0.33879-3.0382,1.0569-5.5334,3.1015l-4.5367,3.7175,0.32948,6.37,0.32948,6.37-7.5-0.001-7.5-0.001,0.28586-23.001z"/>
   <path id="path3961" d="m166.06,512.12c-5.5112-0.71003-11.572-1.9241-13.468-2.6979l-3.448-1.4069,6.6774-3.253c8.3631-4.0742,16.107-9.7526,18.252-13.383l1.6436-2.7825,2.815,2.0045c4.2795,3.0472,9.0488,8.8695,9.0488,11.046,0,2.5373-3.9086,5.0322-8.9412,5.7072-2.357,0.31614-3.7583,0.95822-3.3903,1.5535,0.40312,0.65228,5.3068,0.80376,13.729,0.42413,33.058-1.49,73.789-13.704,94.277-28.271,5.3286-3.7885,4.8411-4.6782-0.6749-1.2316-19.876,12.419-48.526,19.876-70.866,18.444-8.9039-0.57062-21.16-3.1949-21.111-4.5204,0.0497-1.3545,26.393-10.281,28.902-9.7936,16.603,3.2257,20.584,3.5785,29.921,2.6523,5.3099-0.52673,13.068-2.0293,17.239-3.339,7.428-2.332,25.358-10.528,24.628-11.258-0.20322-0.20323-4.3844,1.001-9.2914,2.6761-23.668,8.0794-47.771,10.277-59.672,5.441-2.5373-1.031-2.1498-2.1806,1-2.9666,3.5858-0.89483,9.25-5.2312,9.25-7.0814,0-2.0168,2.3631-1.8104,4.345,0.37963,2.725,3.0111,2.0877,6.0797-1.595,7.6804-3.1338,1.3621-2.9462,1.4133,5.25,1.4319,23.801,0.0541,45.466-7.6131,62.589-22.15,1.4842-1.2601,4.639-4.901,7.0106-8.0911l4.312-5.8,2.4441,3.8c3.0159,4.6891,11.632,13.008,17.647,17.039,14.282,9.5699,38.884,15.804,56.997,14.443l5.5-0.4133-3.4878-1.134c-4.2771-1.3907-4.9699-3.9857-1.9284-7.2233,2.8664-3.0512,3.0581-3.0274,5.1435,0.63709,1.5443,2.7135,3.4957,3.9258,10.273,6.3816,1.8886,0.6844,1.8547,0.80166-0.60962,2.106-10.264,5.4326-39.106,2.9343-63.304-5.4834-3.2527-1.1315-6.0466-1.9247-6.2086-1.7627-0.76328,0.76328,12.076,6.8527,20.123,9.5438,16.814,5.623,33.035,6.4681,47.937,2.4974l6.5261-1.739,7.7684,3.1244c4.2726,1.7184,10.131,3.9409,13.018,4.9389,2.8875,0.99803,5.25,2.1241,5.25,2.5023,0,0.37825-1.4625,1.1546-3.25,1.7252-12.912,4.1217-35.845,4.0273-52.277-0.21533-15.91-4.1077-32.956-11.246-40.968-17.155-4.2279-3.1185-6.4964-4.1087-3.5051-1.53,12.416,10.704,34.697,20.965,57.71,26.578,21.969,5.3583,50.599,8.1009,56.79,5.4403,1.8077-0.7768,1.75-0.86619-0.60078-0.92971-6.9796-0.18863-11.999-4.146-9.9995-7.8829,1.4379-2.6867,9.8442-10.187,11.417-10.187,0.74901,0,1.8495,1.0703,2.4455,2.3785,1.0911,2.3947,12.072,9.5615,20.02,13.066,2.4653,1.0871,3.9098,2.2621,3.4034,2.7685-2.0381,2.0381-20.415,4.8352-35.687,5.4318-30.788,1.2027-58.83-3.2751-84-13.413-16.094-6.4825-30.109-15.635-41.137-26.864l-4.1373-4.2128-2.8627,3.0294c-7.5536,7.9934-23.077,19.161-34.515,24.829-28.411,14.08-74.98,21.03-110.37,16.47z"/>
  </g>
 </g>
</svg>
